<svg width="100" height="144" viewBox="0 0 100 144" fill="none" xmlns="http://www.w3.org/2000/svg">
<path d="M63 29C63 33.4183 66.5817 37 71 37H97.5V135.5C97.5 138.814 94.8137 141.5 91.5 141.5H8.5C5.18629 141.5 2.5 138.814 2.5 135.5V8.5C2.5 5.18629 5.18629 2.5 8.5 2.5H63V29ZM18 97C15.7909 97 14 98.7909 14 101C14 103.209 15.7909 105 18 105H77C79.2091 105 81 103.209 81 101C81 98.7909 79.2091 97 77 97H18ZM18 82C15.7909 82 14 83.7909 14 86C14 88.2091 15.7909 90 18 90H77C79.2091 90 81 88.2091 81 86C81 83.7909 79.2091 82 77 82H18ZM18 67C15.7909 67 14 68.7909 14 71C14 73.2091 15.7909 75 18 75H77C79.2091 75 81 73.2091 81 71C81 68.7909 79.2091 67 77 67H18ZM18 52C15.7909 52 14 53.7909 14 56C14 58.2091 15.7909 60 18 60H61C63.2091 60 65 58.2091 65 56C65 53.7909 63.2091 52 61 52H18ZM95.5 33H71C68.7909 33 67 31.2091 67 29V4.5L95.5 33Z" fill="white"/>
</svg>
