<svg width="140" height="140" viewBox="0 0 140 140" fill="none" xmlns="http://www.w3.org/2000/svg">
<path d="M122.106 4C126.525 4 130.106 7.58172 130.106 12V127C130.106 131.418 126.525 135 122.106 135H83.6064C79.4643 135 76.1064 131.642 76.1064 127.5C76.1064 123.358 79.4643 120 83.6064 120H115.106V19H83.6064C79.4643 19 76.1064 15.6421 76.1064 11.5C76.1064 7.35786 79.4643 4 83.6064 4H122.106ZM39.3027 36.1963C42.2317 33.2674 46.9812 33.2674 49.9102 36.1963C52.8391 39.1252 52.8391 43.8748 49.9102 46.8037L34.7139 62H93.6064C97.7486 62 101.106 65.3579 101.106 69.5C101.106 73.6421 97.7486 77 93.6064 77H34.7139L49.9102 92.1963L50.1758 92.4766C52.8358 95.4207 52.7475 99.9663 49.9102 102.804C47.0728 105.641 42.5272 105.729 39.583 103.069L39.3027 102.804L11.6566 75.1568C8.53252 72.0326 8.53252 66.9674 11.6566 63.8432L39.3027 36.1963Z" fill="white"/>
</svg>
