<svg width="1640" height="1751" viewBox="0 0 1640 1751" fill="none" xmlns="http://www.w3.org/2000/svg">
<path d="M184.903 696.153C113.144 696.207 55 754.394 55 826.153V1531C55 1624.89 131.112 1701 225 1701H1415C1508.89 1701 1585 1624.89 1585 1531V826C1585 754.203 1526.8 696 1455 696H1255.37C1239.42 696 1224.43 688.394 1215.02 675.525L1097.98 515.569C1086.68 500.127 1068.69 491 1049.56 491H590.444C571.309 491 553.322 500.127 542.022 515.569L486.829 591L424.969 675.542C415.56 688.402 400.585 696.006 384.651 696.017L235 696.116L184.903 696.153Z" fill="white"/>
<path d="M235 696.116L184.903 696.153C113.144 696.207 55 754.394 55 826.153V1531C55 1624.89 131.112 1701 225 1701H1415C1508.89 1701 1585 1624.89 1585 1531V826C1585 754.203 1526.8 696 1455 696H1255.37C1239.42 696 1224.43 688.394 1215.02 675.525L1097.98 515.569C1086.68 500.127 1068.69 491 1049.56 491H590.444C571.309 491 553.322 500.127 542.022 515.569L486.829 591M235 696.116L384.651 696.017C400.585 696.006 415.56 688.402 424.969 675.542L486.829 591M235 696.116V593C235 591.895 235.895 591 237 591H486.829" stroke="#488CCB" stroke-width="50"/>
<circle cx="1353" cy="876" r="64" fill="#488CCB"/>
<circle cx="819.5" cy="1183.5" r="375.5" stroke="#488CCB" stroke-width="64"/>
<circle cx="820" cy="1184" r="241" stroke="#488CCB" stroke-width="40"/>
</svg>
