<svg width="125" height="43" viewBox="0 0 125 43" fill="none" xmlns="http://www.w3.org/2000/svg">
<path d="M111 40.535C111 40.535 109 40.535 109 42.535H121.5C121.5 42.535 124 42.535 124 40.035V37.035C124 37.035 124 34.535 121.5 34.535H113C112 34.535 112 33.535 112 33.535V31.535C112 30.535 113 30.535 113 30.535H120.5V31.535H123V30.535C123 30.535 123 28.535 121 28.535H111C111 28.535 109 28.535 109 30.535V34.535C109 34.535 109 36.535 111 36.535H120C120 36.535 121 36.535 121 37.535V39.535C121 39.535 121 40.535 120 40.535H111Z" fill="white"/>
<path d="M99.75 30.535V42.535H102.75V30.535H107V28.535H95.5V30.535H99.75Z" fill="white"/>
<path fill-rule="evenodd" clip-rule="evenodd" d="M78.5 31.035C78.5 28.535 81.5 28.535 81.5 28.535H90.5C93.5 28.535 93.5 31.035 93.5 31.035V39.535C93.5 42.535 90.5 42.535 90.5 42.535H81.5C78.5 42.535 78.5 39.535 78.5 39.535V31.035ZM82.5 30.535C82.5 30.535 81.5 30.535 81.5 31.535V39.535C81.5 39.535 81.5 40.535 82.5 40.535H89.5C89.5 40.535 90.5 40.535 90.5 39.535V31.535C90.5 31.535 90.5 30.535 89.5 30.535H82.5Z" fill="white"/>
<path fill-rule="evenodd" clip-rule="evenodd" d="M60.5 42.535V28.535H70.5C73 28.535 73 31.035 73 31.035V34.035C75.5 34.035 75.5 36.535 75.5 36.535V40.035C75.5 42.535 73 42.535 73 42.535H60.5ZM69 30.535H63.5V34.035H70V31.535C70 31.535 70 30.535 69 30.535ZM71.5 36.035H63.5V40.535H71.5C71.5 40.535 72.5 40.535 72.5 39.535V37.035C72.5 37.035 72.5 36.035 71.5 36.035Z" fill="white"/>
<path fill-rule="evenodd" clip-rule="evenodd" d="M42.5 31.035C42.5 28.535 45.5 28.535 45.5 28.535H54.5C57.5 28.535 57.5 31.035 57.5 31.035V39.535C57.5 42.535 54.5 42.535 54.5 42.535H45.5C42.5 42.535 42.5 39.535 42.5 39.535V31.035ZM46.5 30.535C46.5 30.535 45.5 30.535 45.5 31.535V39.535C45.5 39.535 45.5 40.535 46.5 40.535H53.5C53.5 40.535 54.5 40.535 54.5 39.535V31.535C54.5 31.535 54.5 30.535 53.5 30.535H46.5Z" fill="white"/>
<path d="M24.5 31.035V42.535C27.5 42.535 27.5 39.535 27.5 39.535V36.535H36.5V42.535C39.5 42.535 39.5 39.535 39.5 39.535V28.535C36.5 28.535 36.5 31.035 36.5 31.035V34.535H27.5V28.535C24.5 28.535 24.5 31.035 24.5 31.035Z" fill="white"/>
<path d="M12 0.5C0.5 0.5 0.5 12.035 0.5 12.035V26.535C0.5 26.535 0.5 38.035 10 38.035V39.535C10 39.535 10 42.535 13 42.535V33.535C13 33.535 13 30.535 10 30.535V35.035C3.5 35.035 3.5 26.535 3.5 26.535V12.035C3.5 12.035 3.5 3.5 12 3.5H28C36.5 3.5 36.5 12.035 36.5 12.035V18.535H29C29 18.535 21.5 18.535 21.5 11.035C21.5 11.035 21.5 8 18.5 8V11.035C18.5 11.035 18.5 21.535 29 21.535H39.5V12.035C39.5 0.5 28 0.5 28 0.5H12Z" fill="white"/>
<rect x="9.5" y="12.5" width="3.5" height="3.5" rx="1" fill="white"/>
</svg>
