<svg width="100" height="83" viewBox="0 0 100 83" fill="none" xmlns="http://www.w3.org/2000/svg">
<path d="M91.9502 34C93.3153 34 94.2793 35.3378 93.8477 36.6328L80.5146 76.6328C80.2424 77.4493 79.4779 77.9999 78.6172 78H7C5.89543 78 5 77.1046 5 76V75.8252L18.2578 36.0518C18.6661 34.8268 19.8123 34.0001 21.1035 34H91.9502ZM34.2314 5C35.0964 5.00008 35.9197 5.37344 36.4893 6.02441L44.001 14.6094C45.3301 16.1284 47.2501 16.9999 49.2686 17H76.5C78.1569 17 79.5 18.3431 79.5 20V30H21.1035C18.0907 30.0001 15.4157 31.9279 14.4629 34.7861L5 63.1748V8C5 6.34315 6.34315 5 8 5H34.2314Z" fill="white"/>
</svg>
