<svg width="100" height="100" viewBox="0 0 100 100" fill="none" xmlns="http://www.w3.org/2000/svg">
<path d="M54.1706 54.4496L47.1145 61.5059L38.4938 52.885L45.55 45.8291C47.1136 44.2657 47.1136 41.7212 45.55 40.1578C43.9866 38.5942 41.4423 38.5942 39.8786 40.1578L32.8223 47.2139L29.2784 43.6703C28.3387 42.7302 26.815 42.7304 25.8754 43.6703L20.7562 48.789C19.8166 49.7286 19.8166 51.2523 20.7562 52.1919L21.5202 52.9562L9.95272 64.5233C9.41426 65.0619 9.16248 65.8237 9.274 66.577L11.0566 78.6218L1.70471 87.9737C0.765081 88.9131 0.765081 90.4368 1.70471 91.3764L8.62355 98.2951C9.56319 99.2349 11.0867 99.2349 12.0263 98.2951L21.3784 88.943L33.4232 90.7258C34.1765 90.8371 34.9385 90.5857 35.4767 90.0468L47.044 78.4795L47.8081 79.2436C48.7477 80.183 50.2714 80.183 51.211 79.2436L56.33 74.1242C57.2698 73.1852 57.2698 71.6608 56.33 70.7214L52.786 67.1775L59.8422 60.1213C61.4056 58.5577 61.4056 56.0134 59.8422 54.4498C58.2783 52.8862 55.7345 52.8862 54.1706 54.4496Z" fill="black"/>
<path d="M98.295 8.62379L91.3764 1.70449C90.437 0.765319 88.9131 0.765319 87.9737 1.70449L78.6216 11.0568L66.5765 9.27401C65.8232 9.16271 65.0615 9.41427 64.523 9.95319L52.9557 21.5205L52.1917 20.7562C51.2523 19.8168 49.7286 19.8164 48.7887 20.7562L43.6696 25.8754C42.7299 26.815 42.7299 28.3385 43.6696 29.2784L70.7212 56.33C71.6606 57.2694 73.1845 57.2694 74.1244 56.33L79.2433 51.2106C80.1827 50.2709 80.1827 48.7472 79.2433 47.8078L78.4793 47.0438L90.0466 35.4763C90.585 34.9381 90.8368 34.1765 90.7255 33.4228L88.943 21.3782L98.295 12.0261C99.2349 11.0867 99.2349 9.56274 98.295 8.62379Z" fill="black"/>
</svg>
