<svg width="100" height="100" viewBox="0 0 100 100" fill="none" xmlns="http://www.w3.org/2000/svg">
<path d="M31.7285 38.5286C32.4265 37.8305 33.5317 37.7867 34.2803 38.3977L34.4248 38.5286L61.4766 65.5794C62.1745 66.277 62.2178 67.3821 61.6074 68.1302L61.4766 68.2747V68.2757L56.3574 73.3948C55.6596 74.0923 54.5553 74.1359 53.8066 73.5257L53.6611 73.3948L52.5439 72.2776L52.1904 72.6311L40.623 84.1975V84.1985C40.2501 84.5718 39.7412 84.7704 39.2197 84.7552L38.9961 84.7356L26.9512 82.9534L26.7031 82.9163L26.5244 83.094L17.1729 92.4466C16.4751 93.1444 15.3707 93.188 14.6221 92.5774L14.4775 92.4466L7.55859 85.5276C6.86069 84.8297 6.81709 83.7253 7.42773 82.9768L7.55859 82.8323L16.9102 73.4798L17.0879 73.302L17.0508 73.053L15.2686 61.0081C15.1914 60.486 15.3344 59.9586 15.6572 59.5491L15.8066 59.3811L27.374 47.8147L27.7275 47.4612L26.6094 46.343C25.9119 45.6453 25.8683 44.5409 26.4785 43.7923L26.6094 43.6477L31.7285 38.5286Z" fill="black" stroke="black"/>
<path d="M92.7902 14.1237L85.8716 7.20438C84.9322 6.26521 83.4082 6.26521 82.4688 7.20438L73.1168 16.5567L61.0717 14.7739C60.3184 14.6626 59.5566 14.9142 59.0182 15.4531L47.4509 27.0204L46.6869 26.2561C45.7475 25.3167 44.2238 25.3163 43.2839 26.2561L38.1647 31.3753C37.2251 32.3149 37.2251 33.8384 38.1647 34.7783L65.2163 61.8299C66.1557 62.7693 67.6797 62.7693 68.6195 61.8299L73.7385 56.7105C74.6779 55.7708 74.6779 54.2471 73.7385 53.3077L72.9744 52.5437L84.5417 40.9762C85.0802 40.4379 85.332 39.6764 85.2207 38.9227L83.4381 26.878L92.7902 17.526C93.7301 16.5866 93.7301 15.0626 92.7902 14.1237Z" fill="black"/>
</svg>
