<svg width="94" height="94" viewBox="0 0 94 94" fill="none" xmlns="http://www.w3.org/2000/svg">
<path d="M60.9551 12.624C62.5617 11.1965 64.9891 11.1966 66.5957 12.624L66.7539 12.7715L88.1182 33.7539C91.4714 37.0473 89.1396 42.75 84.4395 42.75H74.958C73.9416 63.6368 62.1599 76.4849 47.9053 81.5576C33.3328 86.7433 16.1188 83.7931 5.66406 73.0703L5.60352 73.0078L5.54688 72.9404L7.27539 71.5C5.58763 72.9064 5.5474 72.9394 5.5459 72.9395L5.54492 72.9375C5.54412 72.9365 5.54287 72.9356 5.54199 72.9346C5.54017 72.9324 5.53827 72.9294 5.53613 72.9268C5.5319 72.9216 5.52689 72.9158 5.52148 72.9092C5.51053 72.8957 5.49691 72.879 5.48145 72.8594C5.45057 72.8202 5.41062 72.7686 5.36426 72.7061C5.2717 72.5812 5.15007 72.4093 5.01562 72.1973C4.75078 71.7796 4.41282 71.1718 4.15332 70.4365C3.63566 68.9698 3.34938 66.6813 5.01855 64.5947C6.85996 62.293 9.54014 62.4971 11.0713 62.8799C11.8896 63.0845 12.6 63.3837 13.0938 63.6211C13.3448 63.7418 13.551 63.8515 13.6992 63.9346C13.7736 63.9762 13.8348 64.0113 13.8799 64.0381C13.9024 64.0515 13.9208 64.0633 13.9355 64.0723C13.9372 64.0733 13.9389 64.0742 13.9404 64.0752L14.7812 64.5674C23.5005 69.5087 33.1486 69.8412 40.4268 66.0654C47.4235 62.4356 52.6415 54.7876 52.5898 42.75H43.1113C38.4115 42.7499 36.0798 37.0483 39.4326 33.7549L60.7979 12.7715L60.9551 12.624Z" fill="white" stroke="#CF8B17" stroke-width="4.5"/>
</svg>
