<svg width="104" height="104" viewBox="0 0 104 104" fill="none" xmlns="http://www.w3.org/2000/svg">
<g clip-path="url(#clip0_15_169)">
<path d="M102 20.5V35.667L101.72 35.3867C97.034 30.7005 89.4358 30.7007 84.7495 35.3867L68.1362 52H25.0005C22.7913 52 21.0005 53.7909 21.0005 56V92C21.0005 94.2091 22.7913 96 25.0005 96H79.0005C81.2094 95.9997 83.0005 94.209 83.0005 92V73.9043L102 54.9043V97C102 99.7613 99.7617 102 97.0005 102H7.00047C4.23904 102 2.00047 99.7614 2.00047 97V7C2.00047 4.23858 4.23904 2 7.00047 2H83.5005L102 20.5ZM21.0005 39.5H77.0005V8.5H21.0005V39.5ZM71.5005 34H58.0005V14H71.5005V34Z" fill="white"/>
<path fill-rule="evenodd" clip-rule="evenodd" d="M52.8182 72.9747L87.5776 38.2153C90.7018 35.0911 95.7671 35.0911 98.8913 38.2153L100.306 39.6295C103.43 42.7537 103.43 47.819 100.306 50.9432L65.5461 85.7026L51.3318 89.6513C49.8326 90.0678 48.453 88.6882 48.8695 87.189L52.8182 72.9747ZM94.2951 49.8825L62.9407 81.2369L57.2839 75.5801L88.6382 44.2257L94.2951 49.8825Z" fill="white"/>
</g>
<defs>
<clipPath id="clip0_15_169">
<rect width="104" height="104" fill="white"/>
</clipPath>
</defs>
</svg>
