<svg width="100" height="100" viewBox="0 0 100 100" fill="none" xmlns="http://www.w3.org/2000/svg">
<path d="M90.859 40.2857C89.8299 35.9355 88.1088 31.7788 85.7613 27.9745L89.5972 20.3008L79.6993 10.4028L72.0255 14.2387C68.2212 11.8912 64.0645 10.1701 59.7142 9.141L57 1H43L40.2857 9.141C35.9355 10.1701 31.7788 11.8912 27.9745 14.2387L20.3008 10.4028L10.4028 20.3008L14.2387 27.9745C11.8912 31.7788 10.1701 35.9355 9.141 40.2857L1 43V57L9.141 59.7142C10.1701 64.0645 11.8912 68.2212 14.2387 72.0255L10.4028 79.6993L20.3008 89.5972L27.9745 85.7613C31.7788 88.1088 35.9355 89.8299 40.2857 90.859L43 99H57L59.7142 90.859C64.0645 89.8299 68.2212 88.1088 72.0255 85.7613L79.6993 89.5972L89.5972 79.6993L85.7613 72.0255C88.1088 68.2212 89.8299 64.0645 90.859 59.7142L99 57V43L90.859 40.2857ZM50 81.5C43.7699 81.5 37.6797 79.6526 32.4995 76.1913C27.3194 72.73 23.282 67.8104 20.8978 62.0545C18.5136 56.2987 17.8898 49.9651 19.1053 43.8547C20.3207 37.7443 23.3208 32.1315 27.7261 27.7261C32.1315 23.3208 37.7443 20.3207 43.8547 19.1053C49.9651 17.8898 56.2987 18.5136 62.0545 20.8978C67.8104 23.282 72.73 27.3194 76.1913 32.4995C79.6526 37.6797 81.5 43.7699 81.5 50C81.5 58.3543 78.1813 66.3665 72.2739 72.2739C66.3665 78.1813 58.3543 81.5 50 81.5Z" fill="black"/>
<path d="M67.5 46.1325C67.5045 44.0726 67.0249 42.0405 66.1 40.2L61.4625 30.9425C61.1727 30.3594 60.726 29.8686 60.1727 29.5255C59.6193 29.1823 58.9811 29.0003 58.33 29H57V43C56.9972 43.9274 56.6276 44.816 55.9718 45.4718C55.316 46.1276 54.4274 46.4972 53.5 46.5H46.5C45.5726 46.4972 44.684 46.1276 44.0282 45.4718C43.3724 44.816 43.0028 43.9274 43 43V29H41.67C41.0188 29.0003 40.3807 29.1823 39.8273 29.5255C39.2739 29.8686 38.8273 30.3594 38.5375 30.9425L33.9 40.2C32.9943 42.0101 32.5156 44.0038 32.5006 46.0278C32.4856 48.0518 32.9347 50.0523 33.8135 51.8757C34.6922 53.6991 35.9772 55.2968 37.5697 56.5461C39.1622 57.7954 41.0199 58.6631 43 59.0825V77.0777C47.5857 78.3074 52.4143 78.3074 57 77.0777V59.0825C59.9692 58.454 62.6323 56.8247 64.5437 54.4673C66.4552 52.1099 67.4988 49.1674 67.5 46.1325Z" fill="black"/>
</svg>
