<svg width="570" height="730" viewBox="0 0 570 730" fill="none" xmlns="http://www.w3.org/2000/svg">
<g clip-path="url(#clip0_1_32)">
<path fill-rule="evenodd" clip-rule="evenodd" d="M65 675.297C65 697.388 82.9086 715.297 105 715.297H465C487.091 715.297 505 697.388 505 675.297V195.297H65V675.297ZM405 295.297C393.956 295.297 385 304.251 385 315.297V595.297C385 606.341 393.956 615.297 405 615.297C416.044 615.297 425 606.341 425 595.297V315.297C425 304.251 416.044 295.297 405 295.297ZM265 315.297C265 304.251 273.954 295.297 285 295.297C296.044 295.297 305 304.251 305 315.297V595.297C305 606.341 296.044 615.297 285 615.297C273.954 615.297 265 606.341 265 595.297V315.297ZM165 295.297C153.954 295.297 145 304.251 145 315.297V595.297C145 606.341 153.954 615.297 165 615.297C176.046 615.297 185 606.341 185 595.297V315.297C185 304.251 176.046 295.297 165 295.297Z" fill="white"/>
<path d="M61.9666 196.376C40.211 200.212 19.4644 185.685 15.6283 163.93C11.7922 142.174 26.3191 121.428 48.0747 117.592L166.252 96.7537V96.7537C161.456 69.559 179.615 43.6261 206.81 38.8309L305.29 21.4661C332.485 16.671 358.418 34.8294 363.213 62.0241V62.0241L481.39 41.1863C503.146 37.3501 523.892 51.8771 527.728 73.6327C531.564 95.3883 517.038 116.135 495.282 119.971L61.9666 196.376Z" fill="white"/>
</g>
<defs>
<clipPath id="clip0_1_32">
<rect width="570" height="730" fill="white"/>
</clipPath>
</defs>
</svg>
