<svg width="540" height="702" viewBox="0 0 540 702" fill="none" xmlns="http://www.w3.org/2000/svg">
<path fill-rule="evenodd" clip-rule="evenodd" d="M50 652.297C50 674.388 67.9086 692.297 90 692.297H450C472.091 692.297 490 674.388 490 652.297V172.297H50V652.297ZM390 272.297C378.956 272.297 370 281.251 370 292.297V572.297C370 583.341 378.956 592.297 390 592.297C401.044 592.297 410 583.341 410 572.297V292.297C410 281.251 401.044 272.297 390 272.297ZM250 292.297C250 281.251 258.954 272.297 270 272.297C281.044 272.297 290 281.251 290 292.297V572.297C290 583.341 281.044 592.297 270 592.297C258.954 592.297 250 583.341 250 572.297V292.297ZM150 272.297C138.954 272.297 130 281.251 130 292.297V572.297C130 583.341 138.954 592.297 150 592.297C161.046 592.297 170 583.341 170 572.297V292.297C170 281.251 161.046 272.297 150 272.297Z" fill="white"/>
<path d="M50 140C27.9088 140 10 122.091 10 100C10 77.9088 27.9088 60 50 60L170 60V60C170 32.3858 192.386 10 220 10L320 10C347.614 10 370 32.3858 370 60V60L490 60C512.092 60 530 77.9088 530 100C530 122.091 512.092 140 490 140H50Z" fill="white"/>
</svg>
