<svg width="160" height="160" viewBox="0 0 160 160" fill="none" xmlns="http://www.w3.org/2000/svg">
<g clip-path="url(#clip0_1_14)">
<path fill-rule="evenodd" clip-rule="evenodd" d="M130 65C130 79.341 125.356 92.5973 117.489 103.347L157.071 142.929C160.976 146.834 160.976 153.166 157.071 157.071C153.166 160.976 146.834 160.976 142.929 157.071L103.347 117.489C92.5973 125.356 79.341 130 65 130C29.1015 130 0 100.899 0 65C0 29.1015 29.1015 0 65 0C100.899 0 130 29.1015 130 65ZM30 57.5C25.8579 57.5 22.5 60.8579 22.5 65C22.5 69.1421 25.8579 72.5 30 72.5H100C104.142 72.5 107.5 69.1421 107.5 65C107.5 60.8579 104.142 57.5 100 57.5H30Z" fill="white"/>
</g>
<defs>
<clipPath id="clip0_1_14">
<rect width="160" height="160" fill="white"/>
</clipPath>
</defs>
</svg>
