<svg width="3508" height="2480" viewBox="0 0 3508 2480" fill="none" xmlns="http://www.w3.org/2000/svg">
<rect width="3508" height="2480" fill="white"/>
<rect x="254" y="190" width="300" height="300" fill="black"/>
<rect x="554" y="490" width="300" height="300" fill="black"/>
<rect x="254" y="790" width="300" height="300" fill="black"/>
<rect x="554" y="1090" width="300" height="300" fill="black"/>
<rect x="254" y="1390" width="300" height="300" fill="black"/>
<rect x="554" y="1690" width="300" height="300" fill="black"/>
<rect x="254" y="1990" width="300" height="300" fill="black"/>
<rect x="854" y="190" width="300" height="300" fill="black"/>
<rect x="1154" y="490" width="300" height="300" fill="black"/>
<rect x="854" y="790" width="300" height="300" fill="black"/>
<rect x="1154" y="1090" width="300" height="300" fill="black"/>
<rect x="854" y="1390" width="300" height="300" fill="black"/>
<rect x="1154" y="1690" width="300" height="300" fill="black"/>
<rect x="854" y="1990" width="300" height="300" fill="black"/>
<rect x="1454" y="190" width="300" height="300" fill="black"/>
<rect x="1754" y="490" width="300" height="300" fill="black"/>
<rect x="1454" y="790" width="300" height="300" fill="black"/>
<rect x="1754" y="1090" width="300" height="300" fill="black"/>
<rect x="1454" y="1390" width="300" height="300" fill="black"/>
<rect x="1754" y="1690" width="300" height="300" fill="black"/>
<rect x="1454" y="1990" width="300" height="300" fill="black"/>
<rect x="2054" y="190" width="300" height="300" fill="black"/>
<rect x="2354" y="490" width="300" height="300" fill="black"/>
<rect x="2054" y="790" width="300" height="300" fill="black"/>
<rect x="2354" y="1090" width="300" height="300" fill="black"/>
<rect x="2054" y="1390" width="300" height="300" fill="black"/>
<rect x="2354" y="1690" width="300" height="300" fill="black"/>
<rect x="2054" y="1990" width="300" height="300" fill="black"/>
<rect x="2654" y="190" width="300" height="300" fill="black"/>
<rect x="2954" y="490" width="300" height="300" fill="black"/>
<rect x="2654" y="790" width="300" height="300" fill="black"/>
<rect x="2954" y="1090" width="300" height="300" fill="black"/>
<rect x="2654" y="1390" width="300" height="300" fill="black"/>
<rect x="2954" y="1690" width="300" height="300" fill="black"/>
<rect x="2654" y="1990" width="300" height="300" fill="black"/>
</svg>
