<svg width="2048" height="650" viewBox="0 0 2048 650" fill="none" xmlns="http://www.w3.org/2000/svg">
<g clip-path="url(#clip0_17_64)">
<path d="M325 0C504.493 0 650 145.507 650 325C650 334.092 649.626 343.097 648.894 352H566V252H519V494H566V399H641.536C608.042 542.838 479.036 650 325 650C261.819 650 202.85 631.971 152.955 600.777L194.076 447.5H393.54C416.441 447.5 436.474 432.09 442.35 409.956L480.307 266.956C488.813 234.91 464.653 203.5 431.497 203.5H182.729C169.798 203.5 158.487 212.206 155.178 224.707L148.517 249.872L148.351 250.5H198.848L158.616 400.5H8.81543C3.05155 376.272 0 350.992 0 325C0 145.507 145.507 0 325 0ZM145.944 447.5L112.719 571.099C74.1062 537.762 43.4226 495.492 23.8789 447.5H145.944ZM406.614 250.5C421.382 250.5 432.146 264.486 428.364 278.762L402.323 377.066C398.664 390.88 386.163 400.5 371.873 400.5H206.676L246.884 250.5H406.614Z" fill="#8C3296"/>
<path d="M699 399H566V449H715V496H750C758.837 496 766 488.837 766 480V250H731C722.163 250 715 257.163 715 266V383C715 391.837 707.837 399 699 399Z" fill="#8C3296"/>
<path fill-rule="evenodd" clip-rule="evenodd" d="M868 496C841.49 496 820 474.51 820 448V299C820 272.49 841.49 251 868 251H1037C1063.51 251 1085 272.49 1085 299V448C1085 474.51 1063.51 496 1037 496H868ZM887 290C877.059 290 869 298.059 869 308V439C869 448.941 877.059 457 887 457H1018C1027.94 457 1036 448.941 1036 439V308C1036 298.059 1027.94 290 1018 290H887Z" fill="#8C3296"/>
<path d="M1188 457V393H1296L1301 354H1188V290H1329L1334 251H1139V496H1334V457H1188Z" fill="#8C3296"/>
<path d="M1747 251H1698V496H1747V251Z" fill="#8C3296"/>
<path d="M1379 496H1427V320L1594 496H1644V251H1595V427L1428 251H1379V496Z" fill="#8C3296"/>
<path d="M1835.22 251H1774.5L1880.64 373.5L1774.5 496H1835.22L1911 408.538L1986.78 496H2047.5L1941.36 373.5L2047.5 251H1986.78L1911 338.462L1835.22 251Z" fill="#8C3296"/>
</g>
<defs>
<clipPath id="clip0_17_64">
<rect width="2048" height="650" fill="white"/>
</clipPath>
</defs>
</svg>
