<svg width="650" height="650" viewBox="0 0 650 650" fill="none" xmlns="http://www.w3.org/2000/svg">
<g clip-path="url(#clip0_17_62)">
<path d="M325 0C504.493 0 650 145.507 650 325C650 504.493 504.493 650 325 650C269.778 650 217.773 636.226 172.231 611.928L216.076 448.5H415.54C438.441 448.5 458.474 433.09 464.35 410.956L502.307 267.956C510.813 235.91 486.653 204.5 453.497 204.5H204.729C191.798 204.5 180.487 213.206 177.178 225.707L170.517 250.872L170.351 251.5H220.848L180.616 401.5H9.05664C3.13771 376.967 0 351.35 0 325C0 145.507 145.507 0 325 0ZM167.944 448.5L131.036 585.798C84.0667 550.808 46.8713 503.429 24.2881 448.5H167.944ZM428.614 251.5C443.382 251.5 454.146 265.486 450.364 279.762L424.323 378.066C420.664 391.88 408.163 401.5 393.873 401.5H228.676L268.884 251.5H428.614Z" fill="#8C3296"/>
</g>
<defs>
<clipPath id="clip0_17_62">
<rect width="650" height="650" fill="white"/>
</clipPath>
</defs>
</svg>
